# xmcd CD database file
#
# Track frame offsets:
#	150
#	20725
#	39146
#	57921
#	78532
#	98488
#	117809
#	139334
#	157887
#	175512
#	196178
#	217015
#
# Disc length: 3190 seconds
#
# Revision: 0
# Processed by: cddbd v1.5.2PL0 Copyright (c) Steve Scherf et al.
# Submitted via: CDex 1.51
#
DISCID=940c740c
DTITLE=Various Artist - Margarita Mix
DYEAR=1900
DGENRE=Salsa
TTITLE0=Profesion timbalero - La Misma Gente
TTITLE1=Hay que negario - Osvaldo Roman
TTITLE2=Esencia latina - Grupo Gale
TTITLE3=Aja - King Bongo
TTITLE4=Mi santo angel - Quinto Mayer
TTITLE5=Dime - Osvaldo Roman
TTITLE6=Soy Boricua - Richie Ray and Bobby Cruz
TTITLE7=Tomados de la mano - Osvaldo Roman
TTITLE8=Entre tu y ella - El Combo De Las Estrellas
TTITLE9=Sera que si - Maelo Ruiz
TTITLE10=Dicen de mi - luisto Carrion
TTITLE11=Las mujeres - Grupo Gale
EXTD=
EXTT0=
EXTT1=
EXTT2=
EXTT3=
EXTT4=
EXTT5=
EXTT6=
EXTT7=
EXTT8=
EXTT9=
EXTT10=
EXTT11=
PLAYORDER=
